<svg width="347" height="347" viewBox="0 0 347 347" fill="none" xmlns="http://www.w3.org/2000/svg">
<g clip-path="url(#clip0_1569_19521)">
<rect width="347" height="347" rx="71" fill="#6D62F7"/>
<path d="M181.192 270.716C160.27 271.233 142.154 267.61 126.843 259.847C111.525 251.793 99.6182 240.602 91.1233 226.274C82.6211 211.656 78.1404 195.048 77.6812 176.451C77.2363 158.435 81.3384 142.051 89.9875 127.3C98.9201 112.251 110.979 100.178 126.164 91.0799C141.35 81.9822 158.386 77.2002 177.274 76.7338C201.682 76.131 222.053 82.7515 238.387 96.5951C255.004 110.141 266.388 129.631 272.541 155.066L131.228 207.838C136.667 216.136 143.657 222.505 152.198 226.947C161.031 231.381 170.677 233.468 181.138 233.21C188.984 233.016 196.506 231.522 203.706 228.728C210.899 225.642 217.634 221.696 223.912 216.889L244.769 249.084C235.621 255.416 225.428 260.61 214.189 264.668C203.233 268.427 192.234 270.443 181.192 270.716ZM121.865 181.902L222.507 142.345C218.522 134.012 212.672 126.742 204.96 120.536C197.537 114.322 187.579 111.37 175.084 111.678C158.811 112.08 145.585 118.077 135.404 129.668C125.506 140.961 120.773 155.325 121.203 172.759C121.282 175.956 121.503 179.003 121.865 181.902Z" fill="#F6F5FF"/>
</g>
<defs>
<clipPath id="clip0_1569_19521">
<rect width="347" height="347" rx="71" fill="white"/>
</clipPath>
</defs>
</svg>
