<svg version="1.2" xmlns="http://www.w3.org/2000/svg" viewBox="0 0 20 20" width="20" height="20">
	<title>homeActive-svg</title>
	<style>
		.s0 { fill: #ffffff } 
	</style>
	<path id="Layer" class="s0" d="m7.5 18.8v-3.1c0-0.8 0.7-1.4 1.5-1.4h2.8c0.4 0 0.8 0.2 1 0.4 0.3 0.3 0.5 0.6 0.5 1v3.1c0 0.3 0.1 0.6 0.3 0.8 0.2 0.3 0.6 0.4 0.9 0.4h1.9c1 0 1.8-0.4 2.5-1 0.6-0.6 1-1.5 1-2.4v-8.7c0-0.8-0.3-1.5-0.9-1.9l-6.7-5.3c-1.1-1-2.8-0.9-3.9 0l-6.5 5.3c-0.6 0.4-1 1.1-1 1.9v8.7c0 1.9 1.5 3.4 3.5 3.4h1.9c0.7 0 1.2-0.5 1.2-1.2z"/>
</svg>