<svg version="1.2" xmlns="http://www.w3.org/2000/svg" viewBox="0 0 21 16" width="21" height="16">
	<title>ticketActive-svg</title>
	<style>
		.s0 { fill: #2458a1 } 
	</style>
	<path id="Layer" fill-rule="evenodd" class="s0" d="m20.6 6.5q-0.2 0.2-0.5 0.2c-0.7 0-1.3 0.6-1.3 1.3 0 0.7 0.6 1.2 1.3 1.3 0.4 0 0.7 0.2 0.7 0.6v2.4c0 2.1-1.7 3.7-3.8 3.7h-3.1c-0.4 0-0.6-0.3-0.6-0.6v-2c0-0.4-0.3-0.7-0.7-0.7-0.4 0-0.8 0.3-0.8 0.7v2c0 0.3-0.2 0.6-0.6 0.6h-6.6c-2.1 0-3.8-1.6-3.8-3.7v-2.4c0-0.4 0.3-0.6 0.7-0.6 0.7-0.1 1.3-0.6 1.3-1.3 0-0.7-0.5-1.2-1.3-1.2q-0.3 0-0.5-0.2-0.2-0.2-0.2-0.5v-2.4c0-2 1.7-3.7 3.8-3.7h6.6c0.4 0 0.6 0.3 0.6 0.6v2.4c0 0.4 0.4 0.7 0.8 0.7 0.4 0 0.7-0.3 0.7-0.7v-2.4c0-0.3 0.2-0.6 0.6-0.6h3.1c2.1 0 3.8 1.6 3.8 3.7v2.3q0 0.3-0.2 0.5zm-8 4.4c0.4 0 0.7-0.3 0.7-0.7v-3.8c0-0.4-0.3-0.7-0.7-0.7-0.4 0-0.8 0.3-0.8 0.7v3.8c0 0.4 0.4 0.7 0.8 0.7z"/>
</svg>