<svg width="23" height="18" viewBox="0 0 23 18" fill="none" xmlns="http://www.w3.org/2000/svg">
<path fill-rule="evenodd" clip-rule="evenodd" d="M13.4004 4.171C12.9864 4.171 12.6504 3.835 12.6504 3.421V1C12.6504 0.586 12.9864 0.25 13.4004 0.25C13.8144 0.25 14.1504 0.586 14.1504 1V3.421C14.1504 3.835 13.8144 4.171 13.4004 4.171Z" fill="#9E9E9E"/>
<path fill-rule="evenodd" clip-rule="evenodd" d="M13.4004 17.2842C12.9864 17.2842 12.6504 16.9482 12.6504 16.5342V14.5112C12.6504 14.0962 12.9864 13.7612 13.4004 13.7612C13.8144 13.7612 14.1504 14.0962 14.1504 14.5112V16.5342C14.1504 16.9482 13.8144 17.2842 13.4004 17.2842Z" fill="#9E9E9E"/>
<path fill-rule="evenodd" clip-rule="evenodd" d="M13.4004 11.8254C12.9864 11.8254 12.6504 11.4894 12.6504 11.0754V6.25439C12.6504 5.84039 12.9864 5.50439 13.4004 5.50439C13.8144 5.50439 14.1504 5.84039 14.1504 6.25439V11.0754C14.1504 11.4894 13.8144 11.8254 13.4004 11.8254Z" fill="#9E9E9E"/>
<mask id="mask0_1611_16331" style="mask-type:luminance" maskUnits="userSpaceOnUse" x="0" y="0" width="23" height="18">
<path fill-rule="evenodd" clip-rule="evenodd" d="M0.800781 0H22.3008V17.4997H0.800781V0Z" fill="white"/>
</mask>
<g mask="url(#mask0_1611_16331)">
<path fill-rule="evenodd" clip-rule="evenodd" d="M2.30078 11.5535V13.4925C2.30078 14.8745 3.44378 15.9995 4.84878 15.9995H18.2528C19.6578 15.9995 20.8008 14.8745 20.8008 13.4925V11.5535C19.5498 11.2245 18.6238 10.0925 18.6238 8.75051C18.6238 7.40751 19.5488 6.27651 20.8008 5.94751L20.7998 4.00651C20.7998 2.62451 19.6568 1.49951 18.2518 1.49951H4.84978C3.44478 1.49951 2.30178 2.62451 2.30178 4.00651L2.30078 6.02451C3.56778 6.33551 4.47778 7.42151 4.47778 8.75051C4.47778 10.0925 3.55178 11.2245 2.30078 11.5535ZM18.2528 17.4995H4.84878C2.61678 17.4995 0.800781 15.7015 0.800781 13.4925V10.9005C0.800781 10.4865 1.13678 10.1505 1.55078 10.1505C2.33778 10.1505 2.97778 9.52251 2.97778 8.75051C2.97778 8.00051 2.36378 7.43451 1.55078 7.43451C1.35178 7.43451 1.16078 7.35551 1.02078 7.21451C0.879781 7.07451 0.800781 6.88251 0.800781 6.68451L0.801781 4.00651C0.801781 1.79751 2.61778 -0.000488281 4.84978 -0.000488281H18.2518C20.4838 -0.000488281 22.2998 1.79751 22.2998 4.00651L22.3008 6.60051C22.3008 6.79851 22.2218 6.99051 22.0808 7.13051C21.9408 7.27151 21.7498 7.35051 21.5508 7.35051C20.7638 7.35051 20.1238 7.97851 20.1238 8.75051C20.1238 9.52251 20.7638 10.1505 21.5508 10.1505C21.9648 10.1505 22.3008 10.4865 22.3008 10.9005V13.4925C22.3008 15.7015 20.4848 17.4995 18.2528 17.4995Z" fill="#9E9E9E"/>
</g>
</svg>